<svg id="Capa_1" data-name="Capa 1" xmlns="http://www.w3.org/2000/svg" viewBox="0 0 389.99 123.32"><defs><style>.cls-1{fill:#00ff7f;}.cls-2{fill:#fff;}</style></defs><title>rm</title><polygon class="cls-1" points="0 47.63 15.54 47.63 15.54 15.54 33.83 15.54 33.83 0 0 0 0 47.63"/><polygon class="cls-1" points="374.44 75.69 374.44 107.78 356.16 107.78 356.16 123.32 389.99 123.32 389.99 75.69 374.44 75.69"/><path class="cls-2" d="M351.53,40.18A23.54,23.54,0,0,0,334,30.59H295.51A20,20,0,0,0,297.77,37a23.07,23.07,0,0,0,1.92,2.87H283.5l0-9.12H260.9v9.12H238.84V48.1c-6.36-8.53-17.51-11.86-28.13-10.11-5.16.84-11.23,3.08-15.45,7.56V40.3H176.81c.07-.42.13-.83.19-1.25V30.72H156.26l.09,4.13c0,4.15-1,6.28-2.87,7.19s-4.57,1-6.91.9H129.73V30.72H109.41V40a36.92,36.92,0,0,0-6.79-2.87c-.69-.2-1.38-.41-2.08-.58l-.23-.06c-1.12-.27-2.25-.5-3.38-.69l-.33,0c-.9-.14-1.8-.25-2.7-.34a53.92,53.92,0,0,0-9.29,0A41.44,41.44,0,0,0,73.5,38.08a33.23,33.23,0,0,0-9.07,5.51,28,28,0,0,0-10.78-6.06,49.94,49.94,0,0,0-14.6-2.41,40.42,40.42,0,0,0-6.32.41V57.05a16.8,16.8,0,0,1,5.29-.8,15.75,15.75,0,0,1,8.23,2,12.62,12.62,0,0,1,4.24,4.83,17.8,17.8,0,0,1,1.58,6.1c.11,1.22.19,2.34.24,3.4-.08,4.46-.09,13.52-.09,20.12h22V75.05c0-1.42,0-3.24.13-5.26a16.68,16.68,0,0,1,1.48-6.23,13.13,13.13,0,0,1,4.33-5.12,15,15,0,0,1,8.24-2.19,15.7,15.7,0,0,1,8.22,2,12.46,12.46,0,0,1,4.24,4.83,17.59,17.59,0,0,1,1.59,6.1c.19,2.19.3,4.06.3,5.83V92.74h92.51V73.86c0-1.33,0-3,.12-4.91a15.51,15.51,0,0,1,1.38-5.81,12.18,12.18,0,0,1,4-4.76,14,14,0,0,1,7.69-2.05,14.63,14.63,0,0,1,7.66,1.9,11.77,11.77,0,0,1,4,4.5,16.68,16.68,0,0,1,1.48,5.69c.18,2,.28,3.78.28,5.44V92.74h22.49V72.07a76.17,76.17,0,0,0-.5-11.3H261v32H283.5v-32h22.2V44.71a23.57,23.57,0,0,0,5,2.08,46.87,46.87,0,0,0,10.69,1.15h5.76c4.26,0,7.38,1,9.27,3A10,10,0,0,1,339.28,58v9H321a32.74,32.74,0,0,0-13.1,2.26,22.09,22.09,0,0,0-8,5.68,18.81,18.81,0,0,0-4,7.24,28.34,28.34,0,0,0-.83,4.67h0s0,.16,0,.43l-.09,1a2.45,2.45,0,0,1,0,.27v0c-.09,1.17-.19,2.71-.19,4H312.8a17.41,17.41,0,0,1,.33-3.14,9.23,9.23,0,0,1,2.15-4.43c1.84-1.85,4.13-2,6.22-1.91h17.78v9.48h18V58.06A30.56,30.56,0,0,0,351.53,40.18ZM156.25,73.27s0,2.79,0,3a13.3,13.3,0,1,1-26.59,0c0-.16,0-.32,0-.48h0V60.55h0s14.91.07,19.87,0A37.55,37.55,0,0,0,162.68,58a25.06,25.06,0,0,0,8.91-6.42A21.64,21.64,0,0,0,174,48.21V73.27Z"/></svg>